<svg width="48" height="48" viewBox="0 0 48 48" fill="none" xmlns="http://www.w3.org/2000/svg">
  <!-- 배경 사각형 -->
  <rect width="48" height="48" rx="8" fill="white"/>
  
  <!-- 클립보드 배경 -->
  <rect x="12" y="8" width="24" height="32" rx="2" fill="#ef4444" stroke="#dc2626" stroke-width="1"/>
  
  <!-- 클립 -->
  <rect x="18" y="6" width="12" height="6" rx="2" fill="#dc2626"/>
  <rect x="20" y="8" width="8" height="2" rx="1" fill="#fca5a5"/>
  
  <!-- 연명부 항목들 -->
  <rect x="16" y="16" width="2" height="2" rx="1" fill="white"/>
  <rect x="20" y="16" width="12" height="2" rx="1" fill="white"/>
  
  <rect x="16" y="20" width="2" height="2" rx="1" fill="white"/>
  <rect x="20" y="20" width="10" height="2" rx="1" fill="white"/>
  
  <rect x="16" y="24" width="2" height="2" rx="1" fill="white"/>
  <rect x="20" y="24" width="14" height="2" rx="1" fill="white"/>
  
  <rect x="16" y="28" width="2" height="2" rx="1" fill="white"/>
  <rect x="20" y="28" width="8" height="2" rx="1" fill="white"/>
  
  <rect x="16" y="32" width="2" height="2" rx="1" fill="white"/>
  <rect x="20" y="32" width="11" height="2" rx="1" fill="white"/>
</svg>
